<svg id="visual" viewBox="0 0 960 540" width="960" height="540" xmlns="http://www.w3.org/2000/svg" xmlns:xlink="http://www.w3.org/1999/xlink" version="1.1"><rect x="0" y="0" width="960" height="540" fill="#001220"></rect><path d="M0 426L22.8 419.8C45.7 413.7 91.3 401.3 137 390.8C182.7 380.3 228.3 371.7 274 366.5C319.7 361.3 365.3 359.7 411.2 374C457 388.3 503 418.7 548.8 425.5C594.7 432.3 640.3 415.7 686 410.3C731.7 405 777.3 411 823 407C868.7 403 914.3 389 937.2 382L960 375L960 541L937.2 541C914.3 541 868.7 541 823 541C777.3 541 731.7 541 686 541C640.3 541 594.7 541 548.8 541C503 541 457 541 411.2 541C365.3 541 319.7 541 274 541C228.3 541 182.7 541 137 541C91.3 541 45.7 541 22.8 541L0 541Z" fill="#fa7268"></path><path d="M0 423L22.8 426C45.7 429 91.3 435 137 444.7C182.7 454.3 228.3 467.7 274 469.3C319.7 471 365.3 461 411.2 452.2C457 443.3 503 435.7 548.8 439.8C594.7 444 640.3 460 686 457.8C731.7 455.7 777.3 435.3 823 425.7C868.7 416 914.3 417 937.2 417.5L960 418L960 541L937.2 541C914.3 541 868.7 541 823 541C777.3 541 731.7 541 686 541C640.3 541 594.7 541 548.8 541C503 541 457 541 411.2 541C365.3 541 319.7 541 274 541C228.3 541 182.7 541 137 541C91.3 541 45.7 541 22.8 541L0 541Z" fill="#c62368"></path></svg>